{
    "asset" : {
        "copyright" : "wouldgo84@gmail.com",
        "generator" : "Khronos glTF Blender I/O v1.0.5",
        "version" : "2.0"
    },
    "scene" : 0,
    "scenes" : [
        {
            "name" : "Scene",
            "nodes" : [
                0,
                1
            ]
        }
    ],
    "nodes" : [
        {
            "mesh" : 0,
            "name" : "play",
            "rotation" : [
                0.7071067690849304,
                0,
                0,
                0.7071067690849304
            ]
        },
        {
            "mesh" : 1,
            "name" : "base",
            "rotation" : [
                0.7071067690849304,
                0,
                0,
                0.7071067690849304
            ]
        }
    ],
    "materials" : [
        {
            "doubleSided" : true,
            "name" : "play-color",
            "pbrMetallicRoughness" : {
                "baseColorFactor" : [
                    0.5394799709320068,
                    0.0930590033531189,
                    0.09758699685335159,
                    1
                ],
                "metallicFactor" : 0.699999988079071,
                "roughnessFactor" : 0
            }
        },
        {
            "doubleSided" : true,
            "name" : "base-color",
            "pbrMetallicRoughness" : {
                "baseColorFactor" : [
                    0.6866859793663025,
                    0.6866850256919861,
                    0.6866850256919861,
                    1
                ],
                "metallicFactor" : 0.5,
                "roughnessFactor" : 0.5
            }
        }
    ],
    "meshes" : [
        {
            "name" : "play-mesh",
            "primitives" : [
                {
                    "attributes" : {
                        "POSITION" : 0
                    },
                    "indices" : 1,
                    "material" : 0
                }
            ]
        },
        {
            "name" : "base-mesh",
            "primitives" : [
                {
                    "attributes" : {
                        "POSITION" : 2
                    },
                    "indices" : 3,
                    "material" : 1
                }
            ]
        }
    ],
    "accessors" : [
        {
            "bufferView" : 0,
            "componentType" : 5126,
            "count" : 384,
            "max" : [
                10.000000953674316,
                6.5684099197387695,
                8.72311782836914
            ],
            "min" : [
                -4.999999046325684,
                2.431065082550049,
                -8.627685546875
            ],
            "type" : "VEC3"
        },
        {
            "bufferView" : 1,
            "componentType" : 5123,
            "count" : 384,
            "type" : "SCALAR"
        },
        {
            "bufferView" : 2,
            "componentType" : 5126,
            "count" : 20184,
            "max" : [
                24.999998092651367,
                2.63224196434021,
                14.999218940734863
            ],
            "min" : [
                -25.000001907348633,
                -2.6322569847106934,
                -14.999119758605957
            ],
            "type" : "VEC3"
        },
        {
            "bufferView" : 3,
            "componentType" : 5123,
            "count" : 20184,
            "type" : "SCALAR"
        }
    ],
    "bufferViews" : [
        {
            "buffer" : 0,
            "byteLength" : 4608,
            "byteOffset" : 0
        },
        {
            "buffer" : 0,
            "byteLength" : 768,
            "byteOffset" : 4608
        },
        {
            "buffer" : 0,
            "byteLength" : 242208,
            "byteOffset" : 5376
        },
        {
            "buffer" : 0,
            "byteLength" : 40368,
            "byteOffset" : 247584
        }
    ],
    "buffers" : [
        {
            "byteLength" : 287952,
            "uri" : "model.bin"
        }
    ]
}
